<svg xmlns="http://www.w3.org/2000/svg" width="1540" height="973" viewBox="0 0 1540 973">
<defs><linearGradient id="famkey" x1="0" y1="0" x2="1" y2="0"><stop offset="0.0%" stop-color="#3d8bc2"/><stop offset="9.1%" stop-color="#3d53c2"/><stop offset="18.2%" stop-color="#3dc2a7"/><stop offset="27.3%" stop-color="#3db0c2"/><stop offset="36.4%" stop-color="#6e3dc2"/><stop offset="45.5%" stop-color="#a73dc2"/><stop offset="54.5%" stop-color="#c2843d"/><stop offset="63.6%" stop-color="#c24f3d"/><stop offset="72.7%" stop-color="#c23d80"/><stop offset="81.8%" stop-color="#3dc26e"/><stop offset="90.9%" stop-color="#72c23d"/><stop offset="100.0%" stop-color="#c2ac3d"/></linearGradient><filter id="soft" x="-25%" y="-25%" width="150%" height="160%"><feDropShadow dx="0" dy="2" stdDeviation="5" flood-color="#0a0a14" flood-opacity="0.08"/></filter></defs>
<rect x="0.0" y="0.0" width="1540.0" height="973.0" rx="0" ry="0" fill="#fcfcfd" stroke="none" stroke-width="1"/>
<text x="32.0" y="64.0" font-size="38" font-family="Bricolage Grotesque" font-weight="600" fill="#16161a" text-anchor="start" font-kerning="normal" letter-spacing="-0.68">A map of testing techniques</text>
<text x="32.0" y="94.0" font-size="16" font-family="Hanken Grotesk" font-weight="400" fill="#52525b" text-anchor="start" font-kerning="normal">Every testing technique, grouped by its oracle — how you know the right answer. Colour is the family.</text>
<text x="32.0" y="122.0" font-size="16" font-family="Hanken Grotesk" font-weight="400" fill="#16161a" text-anchor="start" font-kerning="normal" font-style="italic">Before any test, encode the invariant in the type when you can; otherwise tests live somewhere along  inbound  →  typed interior  →  outbound.</text>
<rect x="32.0" y="148.0" width="1476.0" height="4.0" rx="2" ry="2" fill="url(#famkey)" stroke="none" stroke-width="1"/>
<g filter="url(#soft)"><rect x="32.0" y="176.0" width="351.0" height="172.0" rx="10" ry="10" fill="#f2f7fb" stroke="none" stroke-width="1"/></g>
<path d="M32.0,186.0 a10,10 0 0 1 10,-10 h331.0 a10,10 0 0 1 10,10 v50.0 h-351.0 z" fill="#34688d"/>
<text x="50.0" y="204.0" font-size="21" font-family="Bricolage Grotesque" font-weight="600" fill="#ffffff" text-anchor="start" font-kerning="normal" letter-spacing="-0.10">Foundation</text>
<text x="50.0" y="223.0" font-size="13" font-family="Hanken Grotesk" font-weight="400" fill="#eef0f3" text-anchor="start" font-kerning="normal" font-style="italic">tier 1 · always required</text>
<circle cx="50.0" cy="255.0" r="3.5" fill="#3580b6"/>
<text x="62.0" y="260.0" font-size="16" font-family="Hanken Grotesk" font-weight="500" fill="#16161a" text-anchor="start" font-kerning="normal">Unit</text>
<circle cx="50.0" cy="281.0" r="3.5" fill="#3580b6"/>
<text x="62.0" y="286.0" font-size="16" font-family="Hanken Grotesk" font-weight="500" fill="#16161a" text-anchor="start" font-kerning="normal">Smoke</text>
<circle cx="50.0" cy="307.0" r="3.5" fill="#3580b6"/>
<text x="62.0" y="312.0" font-size="16" font-family="Hanken Grotesk" font-weight="500" fill="#16161a" text-anchor="start" font-kerning="normal">Regression</text>
<g filter="url(#soft)"><rect x="407.0" y="176.0" width="351.0" height="172.0" rx="10" ry="10" fill="#f2f3fb" stroke="none" stroke-width="1"/></g>
<path d="M407.0,186.0 a10,10 0 0 1 10,-10 h331.0 a10,10 0 0 1 10,10 v50.0 h-351.0 z" fill="#34438d"/>
<text x="425.0" y="204.0" font-size="21" font-family="Bricolage Grotesque" font-weight="600" fill="#ffffff" text-anchor="start" font-kerning="normal" letter-spacing="-0.10">Specified oracle</text>
<text x="425.0" y="223.0" font-size="13" font-family="Hanken Grotesk" font-weight="400" fill="#eef0f3" text-anchor="start" font-kerning="normal" font-style="italic">assert exact values</text>
<circle cx="425.0" cy="255.0" r="3.5" fill="#354ab6"/>
<text x="437.0" y="260.0" font-size="16" font-family="Hanken Grotesk" font-weight="500" fill="#16161a" text-anchor="start" font-kerning="normal">Table-driven</text>
<circle cx="425.0" cy="281.0" r="3.5" fill="#354ab6"/>
<text x="437.0" y="286.0" font-size="16" font-family="Hanken Grotesk" font-weight="500" fill="#16161a" text-anchor="start" font-kerning="normal">Integration</text>
<circle cx="425.0" cy="307.0" r="3.5" fill="#354ab6"/>
<text x="437.0" y="312.0" font-size="16" font-family="Hanken Grotesk" font-weight="500" fill="#16161a" text-anchor="start" font-kerning="normal">End-to-end</text>
<g filter="url(#soft)"><rect x="782.0" y="176.0" width="351.0" height="262.0" rx="10" ry="10" fill="#f2fbf9" stroke="none" stroke-width="1"/></g>
<path d="M782.0,186.0 a10,10 0 0 1 10,-10 h331.0 a10,10 0 0 1 10,10 v50.0 h-351.0 z" fill="#348d7c"/>
<text x="800.0" y="204.0" font-size="21" font-family="Bricolage Grotesque" font-weight="600" fill="#ffffff" text-anchor="start" font-kerning="normal" letter-spacing="-0.10">Property / invariant</text>
<text x="800.0" y="223.0" font-size="13" font-family="Hanken Grotesk" font-weight="400" fill="#eef0f3" text-anchor="start" font-kerning="normal" font-style="italic">assert relations</text>
<circle cx="800.0" cy="255.0" r="3.5" fill="#35b69c"/>
<text x="812.0" y="260.0" font-size="16" font-family="Hanken Grotesk" font-weight="500" fill="#16161a" text-anchor="start" font-kerning="normal">Property-based</text>
<circle cx="800.0" cy="281.0" r="3.5" fill="#35b69c"/>
<text x="812.0" y="286.0" font-size="16" font-family="Hanken Grotesk" font-weight="500" fill="#16161a" text-anchor="start" font-kerning="normal">Metamorphic</text>
<text x="812.0" y="305.0" font-size="13" font-family="Hanken Grotesk" font-weight="400" fill="#5b5b62" text-anchor="start" font-kerning="normal" font-style="italic">→  relational variant of Property-based</text>
<circle cx="800.0" cy="326.0" r="3.5" fill="#35b69c"/>
<text x="812.0" y="331.0" font-size="16" font-family="Hanken Grotesk" font-weight="500" fill="#16161a" text-anchor="start" font-kerning="normal">Combinatorial / Pairwise</text>
<circle cx="800.0" cy="352.0" r="3.5" fill="#35b69c"/>
<text x="812.0" y="357.0" font-size="16" font-family="Hanken Grotesk" font-weight="500" fill="#16161a" text-anchor="start" font-kerning="normal">Bounded-exhaustive</text>
<circle cx="800.0" cy="378.0" r="3.5" fill="#35b69c"/>
<text x="812.0" y="383.0" font-size="16" font-family="Hanken Grotesk" font-weight="500" fill="#16161a" text-anchor="start" font-kerning="normal">Fuzz</text>
<text x="812.0" y="402.0" font-size="13" font-family="Hanken Grotesk" font-weight="400" fill="#5b5b62" text-anchor="start" font-kerning="normal" font-style="italic">→  structured = Property-based; sibling of Red-team</text>
<g filter="url(#soft)"><rect x="1157.0" y="176.0" width="351.0" height="191.0" rx="10" ry="10" fill="#f2f9fb" stroke="none" stroke-width="1"/></g>
<path d="M1157.0,186.0 a10,10 0 0 1 10,-10 h331.0 a10,10 0 0 1 10,10 v50.0 h-351.0 z" fill="#34828d"/>
<text x="1175.0" y="204.0" font-size="21" font-family="Bricolage Grotesque" font-weight="600" fill="#ffffff" text-anchor="start" font-kerning="normal" letter-spacing="-0.10">Reference oracle</text>
<text x="1175.0" y="223.0" font-size="13" font-family="Hanken Grotesk" font-weight="400" fill="#eef0f3" text-anchor="start" font-kerning="normal" font-style="italic">compare to another impl</text>
<circle cx="1175.0" cy="255.0" r="3.5" fill="#35a5b6"/>
<text x="1187.0" y="260.0" font-size="16" font-family="Hanken Grotesk" font-weight="500" fill="#16161a" text-anchor="start" font-kerning="normal">Differential</text>
<circle cx="1175.0" cy="281.0" r="3.5" fill="#35a5b6"/>
<text x="1187.0" y="286.0" font-size="16" font-family="Hanken Grotesk" font-weight="500" fill="#16161a" text-anchor="start" font-kerning="normal">Pirate / Conformance</text>
<text x="1187.0" y="305.0" font-size="13" font-family="Hanken Grotesk" font-weight="400" fill="#5b5b62" text-anchor="start" font-kerning="normal" font-style="italic">→  symmetric variant of Differential</text>
<circle cx="1175.0" cy="326.0" r="3.5" fill="#35a5b6"/>
<text x="1187.0" y="331.0" font-size="16" font-family="Hanken Grotesk" font-weight="500" fill="#16161a" text-anchor="start" font-kerning="normal">Compatibility</text>
<g filter="url(#soft)"><rect x="32.0" y="370.0" width="351.0" height="236.0" rx="10" ry="10" fill="#f5f2fb" stroke="none" stroke-width="1"/></g>
<path d="M32.0,380.0 a10,10 0 0 1 10,-10 h331.0 a10,10 0 0 1 10,10 v50.0 h-351.0 z" fill="#55348d"/>
<text x="50.0" y="398.0" font-size="21" font-family="Bricolage Grotesque" font-weight="600" fill="#ffffff" text-anchor="start" font-kerning="normal" letter-spacing="-0.10">Recorded oracle</text>
<text x="50.0" y="417.0" font-size="13" font-family="Hanken Grotesk" font-weight="400" fill="#eef0f3" text-anchor="start" font-kerning="normal" font-style="italic">capture &amp; replay</text>
<circle cx="50.0" cy="449.0" r="3.5" fill="#6435b6"/>
<text x="62.0" y="454.0" font-size="16" font-family="Hanken Grotesk" font-weight="500" fill="#16161a" text-anchor="start" font-kerning="normal">Golden / Snapshot</text>
<circle cx="50.0" cy="475.0" r="3.5" fill="#6435b6"/>
<text x="62.0" y="480.0" font-size="16" font-family="Hanken Grotesk" font-weight="500" fill="#16161a" text-anchor="start" font-kerning="normal">Characterization</text>
<text x="62.0" y="499.0" font-size="13" font-family="Hanken Grotesk" font-weight="400" fill="#5b5b62" text-anchor="start" font-kerning="normal" font-style="italic">→  Golden applied to legacy code</text>
<circle cx="50.0" cy="520.0" r="3.5" fill="#6435b6"/>
<text x="62.0" y="525.0" font-size="16" font-family="Hanken Grotesk" font-weight="500" fill="#16161a" text-anchor="start" font-kerning="normal">VCR cassette</text>
<text x="62.0" y="544.0" font-size="13" font-family="Hanken Grotesk" font-weight="400" fill="#5b5b62" text-anchor="start" font-kerning="normal" font-style="italic">→  guards the HTTP boundary</text>
<circle cx="50.0" cy="565.0" r="3.5" fill="#6435b6"/>
<text x="62.0" y="570.0" font-size="16" font-family="Hanken Grotesk" font-weight="500" fill="#16161a" text-anchor="start" font-kerning="normal">Visual / Screenshot</text>
<g filter="url(#soft)"><rect x="407.0" y="370.0" width="351.0" height="262.0" rx="10" ry="10" fill="#f9f2fb" stroke="none" stroke-width="1"/></g>
<path d="M407.0,380.0 a10,10 0 0 1 10,-10 h331.0 a10,10 0 0 1 10,10 v50.0 h-351.0 z" fill="#7c348d"/>
<text x="425.0" y="398.0" font-size="21" font-family="Bricolage Grotesque" font-weight="600" fill="#ffffff" text-anchor="start" font-kerning="normal" letter-spacing="-0.10">Contract / model / spec</text>
<text x="425.0" y="417.0" font-size="13" font-family="Hanken Grotesk" font-weight="400" fill="#eef0f3" text-anchor="start" font-kerning="normal" font-style="italic">derive from a spec</text>
<circle cx="425.0" cy="449.0" r="3.5" fill="#9c35b6"/>
<text x="437.0" y="454.0" font-size="16" font-family="Hanken Grotesk" font-weight="500" fill="#16161a" text-anchor="start" font-kerning="normal">Contract (Pact)</text>
<text x="437.0" y="473.0" font-size="13" font-family="Hanken Grotesk" font-weight="400" fill="#5b5b62" text-anchor="start" font-kerning="normal" font-style="italic">→  guards a consumer / producer boundary</text>
<circle cx="425.0" cy="494.0" r="3.5" fill="#9c35b6"/>
<text x="437.0" y="499.0" font-size="16" font-family="Hanken Grotesk" font-weight="500" fill="#16161a" text-anchor="start" font-kerning="normal">Doc / Code sync</text>
<text x="437.0" y="518.0" font-size="13" font-family="Hanken Grotesk" font-weight="400" fill="#5b5b62" text-anchor="start" font-kerning="normal" font-style="italic">→  guards the docs / code boundary</text>
<circle cx="425.0" cy="539.0" r="3.5" fill="#9c35b6"/>
<text x="437.0" y="544.0" font-size="16" font-family="Hanken Grotesk" font-weight="500" fill="#16161a" text-anchor="start" font-kerning="normal">Model-based / Stateful</text>
<circle cx="425.0" cy="565.0" r="3.5" fill="#9c35b6"/>
<text x="437.0" y="570.0" font-size="16" font-family="Hanken Grotesk" font-weight="500" fill="#16161a" text-anchor="start" font-kerning="normal">Spec-based / Formal</text>
<circle cx="425.0" cy="591.0" r="3.5" fill="#9c35b6"/>
<text x="437.0" y="596.0" font-size="16" font-family="Hanken Grotesk" font-weight="500" fill="#16161a" text-anchor="start" font-kerning="normal">Concolic / Symbolic</text>
<g filter="url(#soft)"><rect x="1157.0" y="389.0" width="351.0" height="224.0" rx="10" ry="10" fill="#fbf6f2" stroke="none" stroke-width="1"/></g>
<path d="M1157.0,399.0 a10,10 0 0 1 10,-10 h331.0 a10,10 0 0 1 10,10 v50.0 h-351.0 z" fill="#8d6434"/>
<text x="1175.0" y="417.0" font-size="21" font-family="Bricolage Grotesque" font-weight="600" fill="#ffffff" text-anchor="start" font-kerning="normal" letter-spacing="-0.10">Resilience · non-functional</text>
<text x="1175.0" y="436.0" font-size="13" font-family="Hanken Grotesk" font-weight="400" fill="#eef0f3" text-anchor="start" font-kerning="normal" font-style="italic">stress the system, not logic</text>
<circle cx="1175.0" cy="468.0" r="3.5" fill="#b67a35"/>
<text x="1187.0" y="473.0" font-size="16" font-family="Hanken Grotesk" font-weight="500" fill="#16161a" text-anchor="start" font-kerning="normal">Load</text>
<circle cx="1175.0" cy="494.0" r="3.5" fill="#b67a35"/>
<text x="1187.0" y="499.0" font-size="16" font-family="Hanken Grotesk" font-weight="500" fill="#16161a" text-anchor="start" font-kerning="normal">Stress</text>
<circle cx="1175.0" cy="520.0" r="3.5" fill="#b67a35"/>
<text x="1187.0" y="525.0" font-size="16" font-family="Hanken Grotesk" font-weight="500" fill="#16161a" text-anchor="start" font-kerning="normal">Soak / Endurance</text>
<circle cx="1175.0" cy="546.0" r="3.5" fill="#b67a35"/>
<text x="1187.0" y="551.0" font-size="16" font-family="Hanken Grotesk" font-weight="500" fill="#16161a" text-anchor="start" font-kerning="normal">Performance / Benchmark</text>
<circle cx="1175.0" cy="572.0" r="3.5" fill="#b67a35"/>
<text x="1187.0" y="577.0" font-size="16" font-family="Hanken Grotesk" font-weight="500" fill="#16161a" text-anchor="start" font-kerning="normal">Chaos</text>
<g filter="url(#soft)"><rect x="782.0" y="460.0" width="351.0" height="146.0" rx="10" ry="10" fill="#fbf3f2" stroke="none" stroke-width="1"/></g>
<path d="M782.0,470.0 a10,10 0 0 1 10,-10 h331.0 a10,10 0 0 1 10,10 v50.0 h-351.0 z" fill="#8d4034"/>
<text x="800.0" y="488.0" font-size="21" font-family="Bricolage Grotesque" font-weight="600" fill="#ffffff" text-anchor="start" font-kerning="normal" letter-spacing="-0.10">Security oracle</text>
<text x="800.0" y="507.0" font-size="13" font-family="Hanken Grotesk" font-weight="400" fill="#eef0f3" text-anchor="start" font-kerning="normal" font-style="italic">find what shouldn&#x27;t happen</text>
<circle cx="800.0" cy="539.0" r="3.5" fill="#b64635"/>
<text x="812.0" y="544.0" font-size="16" font-family="Hanken Grotesk" font-weight="500" fill="#16161a" text-anchor="start" font-kerning="normal">Penetration / Scan</text>
<circle cx="800.0" cy="565.0" r="3.5" fill="#b64635"/>
<text x="812.0" y="570.0" font-size="16" font-family="Hanken Grotesk" font-weight="500" fill="#16161a" text-anchor="start" font-kerning="normal">Adversarial / Red-team</text>
<g filter="url(#soft)"><rect x="32.0" y="628.0" width="351.0" height="224.0" rx="10" ry="10" fill="#fbf2f6" stroke="none" stroke-width="1"/></g>
<path d="M32.0,638.0 a10,10 0 0 1 10,-10 h331.0 a10,10 0 0 1 10,10 v50.0 h-351.0 z" fill="#8d3461"/>
<text x="50.0" y="656.0" font-size="21" font-family="Bricolage Grotesque" font-weight="600" fill="#ffffff" text-anchor="start" font-kerning="normal" letter-spacing="-0.10">AI-system oracle</text>
<text x="50.0" y="675.0" font-size="13" font-family="Hanken Grotesk" font-weight="400" fill="#eef0f3" text-anchor="start" font-kerning="normal" font-style="italic">non-deterministic outputs</text>
<circle cx="50.0" cy="707.0" r="3.5" fill="#b63575"/>
<text x="62.0" y="712.0" font-size="16" font-family="Hanken Grotesk" font-weight="500" fill="#16161a" text-anchor="start" font-kerning="normal">LLM eval-driven</text>
<circle cx="50.0" cy="733.0" r="3.5" fill="#b63575"/>
<text x="62.0" y="738.0" font-size="16" font-family="Hanken Grotesk" font-weight="500" fill="#16161a" text-anchor="start" font-kerning="normal">Prompt regression</text>
<circle cx="50.0" cy="759.0" r="3.5" fill="#b63575"/>
<text x="62.0" y="764.0" font-size="16" font-family="Hanken Grotesk" font-weight="500" fill="#16161a" text-anchor="start" font-kerning="normal">Vibes / Semantic</text>
<circle cx="50.0" cy="785.0" r="3.5" fill="#b63575"/>
<text x="62.0" y="790.0" font-size="16" font-family="Hanken Grotesk" font-weight="500" fill="#16161a" text-anchor="start" font-kerning="normal">Guardrail</text>
<circle cx="50.0" cy="811.0" r="3.5" fill="#b63575"/>
<text x="62.0" y="816.0" font-size="16" font-family="Hanken Grotesk" font-weight="500" fill="#16161a" text-anchor="start" font-kerning="normal">AI-code verification</text>
<g filter="url(#soft)"><rect x="782.0" y="628.0" width="351.0" height="198.0" rx="10" ry="10" fill="#f2fbf5" stroke="none" stroke-width="1"/></g>
<path d="M782.0,638.0 a10,10 0 0 1 10,-10 h331.0 a10,10 0 0 1 10,10 v50.0 h-351.0 z" fill="#348d55"/>
<text x="800.0" y="656.0" font-size="21" font-family="Bricolage Grotesque" font-weight="600" fill="#ffffff" text-anchor="start" font-kerning="normal" letter-spacing="-0.10">Release-stage &amp; human</text>
<text x="800.0" y="675.0" font-size="13" font-family="Hanken Grotesk" font-weight="400" fill="#eef0f3" text-anchor="start" font-kerning="normal" font-style="italic">process, not code</text>
<circle cx="800.0" cy="707.0" r="3.5" fill="#35b664"/>
<text x="812.0" y="712.0" font-size="16" font-family="Hanken Grotesk" font-weight="500" fill="#16161a" text-anchor="start" font-kerning="normal">Sanity (vs Smoke)</text>
<circle cx="800.0" cy="733.0" r="3.5" fill="#35b664"/>
<text x="812.0" y="738.0" font-size="16" font-family="Hanken Grotesk" font-weight="500" fill="#16161a" text-anchor="start" font-kerning="normal">Canary / Rollout</text>
<circle cx="800.0" cy="759.0" r="3.5" fill="#35b664"/>
<text x="812.0" y="764.0" font-size="16" font-family="Hanken Grotesk" font-weight="500" fill="#16161a" text-anchor="start" font-kerning="normal">Exploratory</text>
<circle cx="800.0" cy="785.0" r="3.5" fill="#35b664"/>
<text x="812.0" y="790.0" font-size="16" font-family="Hanken Grotesk" font-weight="500" fill="#16161a" text-anchor="start" font-kerning="normal">ATDD / BDD / Acceptance</text>
<g filter="url(#soft)"><rect x="1157.0" y="635.0" width="351.0" height="146.0" rx="10" ry="10" fill="#f5fbf2" stroke="none" stroke-width="1"/></g>
<path d="M1157.0,645.0 a10,10 0 0 1 10,-10 h331.0 a10,10 0 0 1 10,10 v50.0 h-351.0 z" fill="#588d34"/>
<text x="1175.0" y="663.0" font-size="21" font-family="Bricolage Grotesque" font-weight="600" fill="#ffffff" text-anchor="start" font-kerning="normal" letter-spacing="-0.10">Domain-specific</text>
<text x="1175.0" y="682.0" font-size="13" font-family="Hanken Grotesk" font-weight="400" fill="#eef0f3" text-anchor="start" font-kerning="normal" font-style="italic">specialised conformance</text>
<circle cx="1175.0" cy="714.0" r="3.5" fill="#68b635"/>
<text x="1187.0" y="719.0" font-size="16" font-family="Hanken Grotesk" font-weight="500" fill="#16161a" text-anchor="start" font-kerning="normal">Data-quality / validation</text>
<circle cx="1175.0" cy="740.0" r="3.5" fill="#68b635"/>
<text x="1187.0" y="745.0" font-size="16" font-family="Hanken Grotesk" font-weight="500" fill="#16161a" text-anchor="start" font-kerning="normal">Accessibility / WCAG</text>
<g filter="url(#soft)"><rect x="407.0" y="654.0" width="351.0" height="229.0" rx="10" ry="10" fill="#fbf9f2" stroke="none" stroke-width="1"/></g>
<path d="M407.0,664.0 a10,10 0 0 1 10,-10 h331.0 a10,10 0 0 1 10,10 v50.0 h-351.0 z" fill="#8d7f34"/>
<text x="425.0" y="682.0" font-size="21" font-family="Bricolage Grotesque" font-weight="600" fill="#ffffff" text-anchor="start" font-kerning="normal" letter-spacing="-0.10">Meta · audits the suite</text>
<text x="425.0" y="701.0" font-size="13" font-family="Hanken Grotesk" font-weight="400" fill="#eef0f3" text-anchor="start" font-kerning="normal" font-style="italic">tests the tests</text>
<circle cx="425.0" cy="733.0" r="3.5" fill="#b6a035"/>
<text x="437.0" y="738.0" font-size="16" font-family="Hanken Grotesk" font-weight="500" fill="#16161a" text-anchor="start" font-kerning="normal">Mutation</text>
<text x="437.0" y="757.0" font-size="13" font-family="Hanken Grotesk" font-weight="400" fill="#5b5b62" text-anchor="start" font-kerning="normal" font-style="italic">→  audits any suite above</text>
<circle cx="425.0" cy="778.0" r="3.5" fill="#b6a035"/>
<text x="437.0" y="783.0" font-size="16" font-family="Hanken Grotesk" font-weight="500" fill="#16161a" text-anchor="start" font-kerning="normal">Coverage</text>
<text x="437.0" y="802.0" font-size="13" font-family="Hanken Grotesk" font-weight="400" fill="#5b5b62" text-anchor="start" font-kerning="normal" font-style="italic">→  audits any suite above</text>
<circle cx="425.0" cy="823.0" r="3.5" fill="#b6a035"/>
<text x="437.0" y="828.0" font-size="16" font-family="Hanken Grotesk" font-weight="500" fill="#16161a" text-anchor="start" font-kerning="normal">Assertion quality</text>
<text x="437.0" y="847.0" font-size="13" font-family="Hanken Grotesk" font-weight="400" fill="#5b5b62" text-anchor="start" font-kerning="normal" font-style="italic">→  audits any suite above</text>
<line x1="32.0" y1="913.0" x2="1508.0" y2="913.0" stroke="#e6e6ea" stroke-width="0.6" stroke-linecap="round"/>
<text x="32.0" y="939.0" font-size="13" font-family="Hanken Grotesk" font-weight="400" fill="#52525b" text-anchor="start" font-kerning="normal" font-style="italic">Each colour is one oracle family.   → italic notes name a technique’s closest relative outside its family (“is a kind of”, or “audits” for the meta layer).</text>
</svg>